{"asset":{"version":"2.0","generator":"VECTARY"},"nodes":[{"translation":[0,-0.7330104162004109,-0.1107261463747651],"scale":[0.02276291565872519,0.02276291565872519,0.02276291565872519],"rotation":[-1.1102230246251565e-16,0,0,1],"name":"Tube - baked","mesh":0},{"translation":[-3.474150558235541,0.6713167733219314,0.10140690727422902],"scale":[0.02276291565872519,0.02276291565872519,0.02276291565872519],"rotation":[-0.7071067811865474,0,0,0.7071067811865475],"name":"3D Text - C","mesh":1},{"translation":[-2.8279416146816927,0.6713167733219314,0.10140690727422902],"scale":[0.02276291565872519,0.02276291565872519,0.02276291565872519],"rotation":[-0.7071067811865474,0,0,0.7071067811865475],"name":"3D Text - l","mesh":2},{"translation":[-2.568857843194933,0.6713167733219314,0.10140690727422902],"scale":[0.02276291565872519,0.02276291565872519,0.02276291565872519],"rotation":[-0.7071067811865474,0,0,0.7071067811865475],"name":"3D Text - i","mesh":3},{"translation":[-2.3097740717081727,0.6713167733219314,0.10140690727422902],"scale":[0.02276291565872519,0.02276291565872519,0.02276291565872519],"rotation":[-0.7071067811865474,0,0,0.7071067811865475],"name":"3D Text - c","mesh":4},{"translation":[-1.8221163937166844,0.6713167733219314,0.10140690727422902],"scale":[0.02276291565872519,0.02276291565872519,0.02276291565872519],"rotation":[-0.7071067811865474,0,0,0.7071067811865475],"name":"3D Text - k","mesh":5},{"translation":[-1.0183565080425085,0.6713167733219314,0.10140690727422902],"scale":[0.02276291565872519,0.02276291565872519,0.02276291565872519],"rotation":[-0.7071067811865474,0,0,0.7071067811865475],"name":"3D Text - a","mesh":6},{"translation":[-0.44867230780424705,0.6713167733219314,0.10140690727422902],"scale":[0.02276291565872519,0.02276291565872519,0.02276291565872519],"rotation":[-0.7071067811865474,0,0,0.7071067811865475],"name":"3D Text - n","mesh":7},{"translation":[0.18003097551400998,0.6713167733219314,0.10140690727422902],"scale":[0.02276291565872519,0.02276291565872519,0.02276291565872519],"rotation":[-0.7071067811865474,0,0,0.7071067811865475],"name":"3D Text - d","mesh":8},{"translation":[1.07381997097123,0.6713167733219314,0.10140690727422902],"scale":[0.02276291565872519,0.02276291565872519,0.02276291565872519],"rotation":[-0.7071067811865474,0,0,0.7071067811865475],"name":"3D Text - D","mesh":9},{"translation":[1.8205614204494778,0.6713167733219314,0.10140690727422902],"scale":[0.02276291565872519,0.02276291565872519,0.02276291565872519],"rotation":[-0.7071067811865474,0,0,0.7071067811865475],"name":"3D Text - r","mesh":10},{"translation":[2.2386966192196156,0.6713167733219314,0.10140690727422902],"scale":[0.02276291565872519,0.02276291565872519,0.02276291565872519],"rotation":[-0.7071067811865474,0,0,0.7071067811865475],"name":"3D Text - a","mesh":11},{"translation":[2.8083808194578768,0.6713167733219314,0.10140690727422902],"scale":[0.02276291565872519,0.02276291565872519,0.02276291565872519],"rotation":[-0.7071067811865474,0,0,0.7071067811865475],"name":"3D Text - g","mesh":12}],"materials":[{"pbrMetallicRoughness":{"baseColorFactor":[1,1,1,1],"metallicFactor":0,"roughnessFactor":0.2},"name":"Garden Glow","emissiveFactor":[0,0,0],"extensions":{},"alphaMode":"OPAQUE","doubleSided":false}],"meshes":[{"primitives":[{"mode":4,"attributes":{"POSITION":1,"NORMAL":2,"TEXCOORD_0":3},"material":0,"indices":0}]},{"primitives":[{"mode":4,"attributes":{"POSITION":5,"NORMAL":6,"TEXCOORD_0":7},"material":0,"indices":4}]},{"primitives":[{"mode":4,"attributes":{"POSITION":9,"NORMAL":10,"TEXCOORD_0":11},"material":0,"indices":8}]},{"primitives":[{"mode":4,"attributes":{"POSITION":13,"NORMAL":14,"TEXCOORD_0":15},"material":0,"indices":12}]},{"primitives":[{"mode":4,"attributes":{"POSITION":17,"NORMAL":18,"TEXCOORD_0":19},"material":0,"indices":16}]},{"primitives":[{"mode":4,"attributes":{"POSITION":21,"NORMAL":22,"TEXCOORD_0":23},"material":0,"indices":20}]},{"primitives":[{"mode":4,"attributes":{"POSITION":25,"NORMAL":26,"TEXCOORD_0":27},"material":0,"indices":24}]},{"primitives":[{"mode":4,"attributes":{"POSITION":29,"NORMAL":30,"TEXCOORD_0":31},"material":0,"indices":28}]},{"primitives":[{"mode":4,"attributes":{"POSITION":33,"NORMAL":34,"TEXCOORD_0":35},"material":0,"indices":32}]},{"primitives":[{"mode":4,"attributes":{"POSITION":37,"NORMAL":38,"TEXCOORD_0":39},"material":0,"indices":36}]},{"primitives":[{"mode":4,"attributes":{"POSITION":41,"NORMAL":42,"TEXCOORD_0":43},"material":0,"indices":40}]},{"primitives":[{"mode":4,"attributes":{"POSITION":25,"NORMAL":26,"TEXCOORD_0":27},"material":0,"indices":24}]},{"primitives":[{"mode":4,"attributes":{"POSITION":45,"NORMAL":46,"TEXCOORD_0":47},"material":0,"indices":44}]}],"accessors":[{"bufferView":0,"byteOffset":0,"componentType":5125,"count":960,"type":"SCALAR"},{"bufferView":1,"byteOffset":0,"componentType":5126,"count":348,"max":[50,52.72420120239258,57.70000076293945],"min":[-47.77851104736328,-50,-30],"type":"VEC3"},{"bufferView":2,"byteOffset":0,"componentType":5126,"count":348,"type":"VEC3"},{"bufferView":3,"byteOffset":0,"componentType":5126,"count":348,"type":"VEC2"},{"bufferView":4,"byteOffset":0,"componentType":5125,"count":792,"type":"SCALAR"},{"bufferView":5,"byteOffset":0,"componentType":5126,"count":530,"max":[30.054000854492188,2.216978084606017e-15,36.20600128173828],"min":[3.052000045776367,-15,-0.4880000054836273],"type":"VEC3"},{"bufferView":6,"byteOffset":0,"componentType":5126,"count":530,"type":"VEC3"},{"bufferView":7,"byteOffset":0,"componentType":5126,"count":530,"type":"VEC2"},{"bufferView":8,"byteOffset":0,"componentType":5125,"count":36,"type":"SCALAR"},{"bufferView":9,"byteOffset":0,"componentType":5126,"count":24,"max":[8.350000381469727,2.326094139420737e-15,37.987998962402344],"min":[4.296999931335449,-15,0],"type":"VEC3"},{"bufferView":10,"byteOffset":0,"componentType":5126,"count":24,"type":"VEC3"},{"bufferView":11,"byteOffset":0,"componentType":5126,"count":24,"type":"VEC2"},{"bufferView":12,"byteOffset":0,"componentType":5125,"count":504,"type":"SCALAR"},{"bufferView":13,"byteOffset":0,"componentType":5126,"count":338,"max":[8.739999771118164,2.2468595011610176e-15,36.694000244140625],"min":[3.9549999237060547,-15,0],"type":"VEC3"},{"bufferView":14,"byteOffset":0,"componentType":5126,"count":338,"type":"VEC3"},{"bufferView":15,"byteOffset":0,"componentType":5126,"count":338,"type":"VEC2"},{"bufferView":16,"byteOffset":0,"componentType":5125,"count":792,"type":"SCALAR"},{"bufferView":17,"byteOffset":0,"componentType":5126,"count":530,"max":[22.143999099731445,1.6683363158236856e-15,27.246000289916992],"min":[2.808000087738037,-15,-0.4880000054836273],"type":"VEC3"},{"bufferView":18,"byteOffset":0,"componentType":5126,"count":530,"type":"VEC3"},{"bufferView":19,"byteOffset":0,"componentType":5126,"count":530,"type":"VEC2"},{"bufferView":20,"byteOffset":0,"componentType":5125,"count":264,"type":"SCALAR"},{"bufferView":21,"byteOffset":0,"componentType":5126,"count":182,"max":[25.70800018310547,2.326094139420737e-15,37.987998962402344],"min":[4.296999931335449,-15,0],"type":"VEC3"},{"bufferView":22,"byteOffset":0,"componentType":5126,"count":182,"type":"VEC3"},{"bufferView":23,"byteOffset":0,"componentType":5126,"count":182,"type":"VEC2"},{"bufferView":24,"byteOffset":0,"componentType":5125,"count":1188,"type":"SCALAR"},{"bufferView":25,"byteOffset":0,"componentType":5126,"count":794,"max":[23.7549991607666,1.6653360192453925e-15,27.19700050354004],"min":[2.2950000762939453,-15,-0.4880000054836273],"type":"VEC3"},{"bufferView":26,"byteOffset":0,"componentType":5126,"count":794,"type":"VEC3"},{"bufferView":27,"byteOffset":0,"componentType":5126,"count":794,"type":"VEC2"},{"bufferView":28,"byteOffset":0,"componentType":5125,"count":576,"type":"SCALAR"},{"bufferView":29,"byteOffset":0,"componentType":5126,"count":386,"max":[26.65999984741211,1.6683363158236856e-15,27.246000289916992],"min":[4.296999931335449,-15,0],"type":"VEC3"},{"bufferView":30,"byteOffset":0,"componentType":5126,"count":386,"type":"VEC3"},{"bufferView":31,"byteOffset":0,"componentType":5126,"count":386,"type":"VEC2"},{"bufferView":32,"byteOffset":0,"componentType":5125,"count":960,"type":"SCALAR"},{"bufferView":33,"byteOffset":0,"componentType":5126,"count":642,"max":[26.343000411987305,2.326094139420737e-15,37.987998962402344],"min":[2.808000087738037,-15,-0.4880000054836273],"type":"VEC3"},{"bufferView":34,"byteOffset":0,"componentType":5126,"count":642,"type":"VEC3"},{"bufferView":35,"byteOffset":0,"componentType":5126,"count":642,"type":"VEC2"},{"bufferView":36,"byteOffset":0,"componentType":5125,"count":552,"type":"SCALAR"},{"bufferView":37,"byteOffset":0,"componentType":5126,"count":366,"max":[33.39799880981445,2.1855658677570914e-15,35.69300079345703],"min":[4.9070000648498535,-15,0],"type":"VEC3"},{"bufferView":38,"byteOffset":0,"componentType":5126,"count":366,"type":"VEC3"},{"bufferView":39,"byteOffset":0,"componentType":5126,"count":366,"type":"VEC2"},{"bufferView":40,"byteOffset":0,"componentType":5125,"count":432,"type":"SCALAR"},{"bufferView":41,"byteOffset":0,"componentType":5126,"count":290,"max":[19.70199966430664,1.6683363158236856e-15,27.246000289916992],"min":[4.296999931335449,-15,0],"type":"VEC3"},{"bufferView":42,"byteOffset":0,"componentType":5126,"count":290,"type":"VEC3"},{"bufferView":43,"byteOffset":0,"componentType":5126,"count":290,"type":"VEC2"},{"bufferView":44,"byteOffset":0,"componentType":5125,"count":2412,"type":"SCALAR"},{"bufferView":45,"byteOffset":0,"componentType":5126,"count":1604,"max":[26.195999145507812,1.6683363158236856e-15,27.246000289916992],"min":[0.9520000219345093,-15,-12.01200008392334],"type":"VEC3"},{"bufferView":46,"byteOffset":0,"componentType":5126,"count":1604,"type":"VEC3"},{"bufferView":47,"byteOffset":0,"componentType":5126,"count":1604,"type":"VEC2"}],"bufferViews":[{"buffer":0,"byteOffset":0,"byteLength":3840,"target":34963},{"buffer":0,"byteOffset":3840,"byteLength":4176,"target":34962},{"buffer":0,"byteOffset":8016,"byteLength":4176,"target":34962},{"buffer":0,"byteOffset":12192,"byteLength":2784,"target":34962},{"buffer":0,"byteOffset":14976,"byteLength":3168,"target":34963},{"buffer":0,"byteOffset":18144,"byteLength":6360,"target":34962},{"buffer":0,"byteOffset":24504,"byteLength":6360,"target":34962},{"buffer":0,"byteOffset":30864,"byteLength":4240,"target":34962},{"buffer":0,"byteOffset":35104,"byteLength":144,"target":34963},{"buffer":0,"byteOffset":35248,"byteLength":288,"target":34962},{"buffer":0,"byteOffset":35536,"byteLength":288,"target":34962},{"buffer":0,"byteOffset":35824,"byteLength":192,"target":34962},{"buffer":0,"byteOffset":36016,"byteLength":2016,"target":34963},{"buffer":0,"byteOffset":38032,"byteLength":4056,"target":34962},{"buffer":0,"byteOffset":42088,"byteLength":4056,"target":34962},{"buffer":0,"byteOffset":46144,"byteLength":2704,"target":34962},{"buffer":0,"byteOffset":48848,"byteLength":3168,"target":34963},{"buffer":0,"byteOffset":52016,"byteLength":6360,"target":34962},{"buffer":0,"byteOffset":58376,"byteLength":6360,"target":34962},{"buffer":0,"byteOffset":64736,"byteLength":4240,"target":34962},{"buffer":0,"byteOffset":68976,"byteLength":1056,"target":34963},{"buffer":0,"byteOffset":70032,"byteLength":2184,"target":34962},{"buffer":0,"byteOffset":72216,"byteLength":2184,"target":34962},{"buffer":0,"byteOffset":74400,"byteLength":1456,"target":34962},{"buffer":0,"byteOffset":75856,"byteLength":4752,"target":34963},{"buffer":0,"byteOffset":80608,"byteLength":9528,"target":34962},{"buffer":0,"byteOffset":90136,"byteLength":9528,"target":34962},{"buffer":0,"byteOffset":99664,"byteLength":6352,"target":34962},{"buffer":0,"byteOffset":106016,"byteLength":2304,"target":34963},{"buffer":0,"byteOffset":108320,"byteLength":4632,"target":34962},{"buffer":0,"byteOffset":112952,"byteLength":4632,"target":34962},{"buffer":0,"byteOffset":117584,"byteLength":3088,"target":34962},{"buffer":0,"byteOffset":120672,"byteLength":3840,"target":34963},{"buffer":0,"byteOffset":124512,"byteLength":7704,"target":34962},{"buffer":0,"byteOffset":132216,"byteLength":7704,"target":34962},{"buffer":0,"byteOffset":139920,"byteLength":5136,"target":34962},{"buffer":0,"byteOffset":145056,"byteLength":2208,"target":34963},{"buffer":0,"byteOffset":147264,"byteLength":4392,"target":34962},{"buffer":0,"byteOffset":151656,"byteLength":4392,"target":34962},{"buffer":0,"byteOffset":156048,"byteLength":2928,"target":34962},{"buffer":0,"byteOffset":158976,"byteLength":1728,"target":34963},{"buffer":0,"byteOffset":160704,"byteLength":3480,"target":34962},{"buffer":0,"byteOffset":164184,"byteLength":3480,"target":34962},{"buffer":0,"byteOffset":167664,"byteLength":2320,"target":34962},{"buffer":0,"byteOffset":169984,"byteLength":9648,"target":34963},{"buffer":0,"byteOffset":179632,"byteLength":19248,"target":34962},{"buffer":0,"byteOffset":198880,"byteLength":19248,"target":34962},{"buffer":0,"byteOffset":218128,"byteLength":12832,"target":34962}],"scene":0,"scenes":[{"nodes":[0,1,2,3,4,5,6,7,8,9,10,11,12],"name":"Project Name"}],"extensionsUsed":["KHR_texture_transform"],"buffers":[{"byteLength":230960,"uri":"ProjectName.bin"}]}