{"asset":{"version":"2.0","generator":"VECTARY"},"nodes":[{"translation":[-0.13327293968200685,0,0],"scale":[0.001,0.001,0.001],"rotation":[-0.7071067811865475,0,0,0.7071067811865476],"name":"3D Text - C","mesh":0},{"translation":[-0.10488426780700684,0,0],"scale":[0.001,0.001,0.001],"rotation":[-0.7071067811865475,0,0,0.7071067811865476],"name":"3D Text - l","mesh":1},{"translation":[-0.09350243186950684,0,0],"scale":[0.001,0.001,0.001],"rotation":[-0.7071067811865475,0,0,0.7071067811865476],"name":"3D Text - i","mesh":2},{"translation":[-0.08212059593200684,0,0],"scale":[0.001,0.001,0.001],"rotation":[-0.7071067811865475,0,0,0.7071067811865476],"name":"3D Text - c","mesh":3},{"translation":[-0.06069725608825684,0,0],"scale":[0.001,0.001,0.001],"rotation":[-0.7071067811865475,0,0,0.7071067811865476],"name":"3D Text - k","mesh":4},{"translation":[-0.025387197494506835,0,0],"scale":[0.001,0.001,0.001],"rotation":[-0.7071067811865475,0,0,0.7071067811865476],"name":"3D Text - A","mesh":5},{"translation":[0.0030893650054931642,0,0],"scale":[0.001,0.001,0.001],"rotation":[-0.7071067811865475,0,0,0.7071067811865476],"name":"3D Text - r","mesh":6},{"translation":[0.021458505630493164,0,0],"scale":[0.001,0.001,0.001],"rotation":[-0.7071067811865475,0,0,0.7071067811865476],"name":"3D Text - o","mesh":7},{"translation":[0.04863868141174316,0,0],"scale":[0.001,0.001,0.001],"rotation":[-0.7071067811865475,0,0,0.7071067811865476],"name":"3D Text - u","mesh":8},{"translation":[0.07625831031799317,0,0],"scale":[0.001,0.001,0.001],"rotation":[-0.7071067811865475,0,0,0.7071067811865476],"name":"3D Text - n","mesh":9},{"translation":[0.10387793922424317,0,0],"scale":[0.001,0.001,0.001],"rotation":[-0.7071067811865475,0,0,0.7071067811865476],"name":"3D Text - d","mesh":10}],"materials":[{"pbrMetallicRoughness":{"baseColorFactor":[0.8670237934377415,0.8670237934377415,0.8670237934377415,1],"metallicFactor":0,"roughnessFactor":0.2},"name":"Origami","emissiveFactor":[0,0,0],"extensions":{},"alphaMode":"OPAQUE","doubleSided":false}],"meshes":[{"primitives":[{"mode":4,"attributes":{"POSITION":1,"NORMAL":2,"TEXCOORD_0":3},"material":0,"indices":0}]},{"primitives":[{"mode":4,"attributes":{"POSITION":5,"NORMAL":6,"TEXCOORD_0":7},"material":0,"indices":4}]},{"primitives":[{"mode":4,"attributes":{"POSITION":9,"NORMAL":10,"TEXCOORD_0":11},"material":0,"indices":8}]},{"primitives":[{"mode":4,"attributes":{"POSITION":13,"NORMAL":14,"TEXCOORD_0":15},"material":0,"indices":12}]},{"primitives":[{"mode":4,"attributes":{"POSITION":17,"NORMAL":18,"TEXCOORD_0":19},"material":0,"indices":16}]},{"primitives":[{"mode":4,"attributes":{"POSITION":21,"NORMAL":22,"TEXCOORD_0":23},"material":0,"indices":20}]},{"primitives":[{"mode":4,"attributes":{"POSITION":25,"NORMAL":26,"TEXCOORD_0":27},"material":0,"indices":24}]},{"primitives":[{"mode":4,"attributes":{"POSITION":29,"NORMAL":30,"TEXCOORD_0":31},"material":0,"indices":28}]},{"primitives":[{"mode":4,"attributes":{"POSITION":33,"NORMAL":34,"TEXCOORD_0":35},"material":0,"indices":32}]},{"primitives":[{"mode":4,"attributes":{"POSITION":37,"NORMAL":38,"TEXCOORD_0":39},"material":0,"indices":36}]},{"primitives":[{"mode":4,"attributes":{"POSITION":41,"NORMAL":42,"TEXCOORD_0":43},"material":0,"indices":40}]}],"accessors":[{"bufferView":0,"byteOffset":0,"componentType":5125,"count":792,"type":"SCALAR"},{"bufferView":1,"byteOffset":0,"componentType":5126,"count":530,"max":[30.054000854492188,2.216978084606017e-15,36.20600128173828],"min":[3.052000045776367,-15,-0.4880000054836273],"type":"VEC3"},{"bufferView":2,"byteOffset":0,"componentType":5126,"count":530,"type":"VEC3"},{"bufferView":3,"byteOffset":0,"componentType":5126,"count":530,"type":"VEC2"},{"bufferView":4,"byteOffset":0,"componentType":5125,"count":36,"type":"SCALAR"},{"bufferView":5,"byteOffset":0,"componentType":5126,"count":24,"max":[8.350000381469727,2.326094139420737e-15,37.987998962402344],"min":[4.296999931335449,-15,0],"type":"VEC3"},{"bufferView":6,"byteOffset":0,"componentType":5126,"count":24,"type":"VEC3"},{"bufferView":7,"byteOffset":0,"componentType":5126,"count":24,"type":"VEC2"},{"bufferView":8,"byteOffset":0,"componentType":5125,"count":504,"type":"SCALAR"},{"bufferView":9,"byteOffset":0,"componentType":5126,"count":338,"max":[8.739999771118164,2.2468595011610176e-15,36.694000244140625],"min":[3.9549999237060547,-15,0],"type":"VEC3"},{"bufferView":10,"byteOffset":0,"componentType":5126,"count":338,"type":"VEC3"},{"bufferView":11,"byteOffset":0,"componentType":5126,"count":338,"type":"VEC2"},{"bufferView":12,"byteOffset":0,"componentType":5125,"count":792,"type":"SCALAR"},{"bufferView":13,"byteOffset":0,"componentType":5126,"count":530,"max":[22.143999099731445,1.6683363158236856e-15,27.246000289916992],"min":[2.808000087738037,-15,-0.4880000054836273],"type":"VEC3"},{"bufferView":14,"byteOffset":0,"componentType":5126,"count":530,"type":"VEC3"},{"bufferView":15,"byteOffset":0,"componentType":5126,"count":530,"type":"VEC2"},{"bufferView":16,"byteOffset":0,"componentType":5125,"count":264,"type":"SCALAR"},{"bufferView":17,"byteOffset":0,"componentType":5126,"count":182,"max":[25.70800018310547,2.326094139420737e-15,37.987998962402344],"min":[4.296999931335449,-15,0],"type":"VEC3"},{"bufferView":18,"byteOffset":0,"componentType":5126,"count":182,"type":"VEC3"},{"bufferView":19,"byteOffset":0,"componentType":5126,"count":182,"type":"VEC2"},{"bufferView":20,"byteOffset":0,"componentType":5125,"count":252,"type":"SCALAR"},{"bufferView":21,"byteOffset":0,"componentType":5126,"count":171,"max":[31.641000747680664,2.194567075129326e-15,35.84000015258789],"min":[0,-15,0],"type":"VEC3"},{"bufferView":22,"byteOffset":0,"componentType":5126,"count":171,"type":"VEC3"},{"bufferView":23,"byteOffset":0,"componentType":5126,"count":171,"type":"VEC2"},{"bufferView":24,"byteOffset":0,"componentType":5125,"count":432,"type":"SCALAR"},{"bufferView":25,"byteOffset":0,"componentType":5126,"count":290,"max":[19.70199966430664,1.6683363158236856e-15,27.246000289916992],"min":[4.296999931335449,-15,0],"type":"VEC3"},{"bufferView":26,"byteOffset":0,"componentType":5126,"count":290,"type":"VEC3"},{"bufferView":27,"byteOffset":0,"componentType":5126,"count":290,"type":"VEC2"},{"bufferView":28,"byteOffset":0,"componentType":5125,"count":1020,"type":"SCALAR"},{"bufferView":29,"byteOffset":0,"componentType":5126,"count":678,"max":[27.39299964904785,1.6683363158236856e-15,27.246000289916992],"min":[2.808000087738037,-15,-0.4880000054836273],"type":"VEC3"},{"bufferView":30,"byteOffset":0,"componentType":5126,"count":678,"type":"VEC3"},{"bufferView":31,"byteOffset":0,"componentType":5126,"count":678,"type":"VEC2"},{"bufferView":32,"byteOffset":0,"componentType":5125,"count":576,"type":"SCALAR"},{"bufferView":33,"byteOffset":0,"componentType":5126,"count":388,"max":[26.392000198364258,1.6384548992686853e-15,26.757999420166016],"min":[4.004000186920166,-15,-0.4880000054836273],"type":"VEC3"},{"bufferView":34,"byteOffset":0,"componentType":5126,"count":388,"type":"VEC3"},{"bufferView":35,"byteOffset":0,"componentType":5126,"count":388,"type":"VEC2"},{"bufferView":36,"byteOffset":0,"componentType":5125,"count":576,"type":"SCALAR"},{"bufferView":37,"byteOffset":0,"componentType":5126,"count":386,"max":[26.65999984741211,1.6683363158236856e-15,27.246000289916992],"min":[4.296999931335449,-15,0],"type":"VEC3"},{"bufferView":38,"byteOffset":0,"componentType":5126,"count":386,"type":"VEC3"},{"bufferView":39,"byteOffset":0,"componentType":5126,"count":386,"type":"VEC2"},{"bufferView":40,"byteOffset":0,"componentType":5125,"count":960,"type":"SCALAR"},{"bufferView":41,"byteOffset":0,"componentType":5126,"count":642,"max":[26.343000411987305,2.326094139420737e-15,37.987998962402344],"min":[2.808000087738037,-15,-0.4880000054836273],"type":"VEC3"},{"bufferView":42,"byteOffset":0,"componentType":5126,"count":642,"type":"VEC3"},{"bufferView":43,"byteOffset":0,"componentType":5126,"count":642,"type":"VEC2"}],"bufferViews":[{"buffer":0,"byteOffset":0,"byteLength":3168,"target":34963},{"buffer":0,"byteOffset":3168,"byteLength":6360,"target":34962},{"buffer":0,"byteOffset":9528,"byteLength":6360,"target":34962},{"buffer":0,"byteOffset":15888,"byteLength":4240,"target":34962},{"buffer":0,"byteOffset":20128,"byteLength":144,"target":34963},{"buffer":0,"byteOffset":20272,"byteLength":288,"target":34962},{"buffer":0,"byteOffset":20560,"byteLength":288,"target":34962},{"buffer":0,"byteOffset":20848,"byteLength":192,"target":34962},{"buffer":0,"byteOffset":21040,"byteLength":2016,"target":34963},{"buffer":0,"byteOffset":23056,"byteLength":4056,"target":34962},{"buffer":0,"byteOffset":27112,"byteLength":4056,"target":34962},{"buffer":0,"byteOffset":31168,"byteLength":2704,"target":34962},{"buffer":0,"byteOffset":33872,"byteLength":3168,"target":34963},{"buffer":0,"byteOffset":37040,"byteLength":6360,"target":34962},{"buffer":0,"byteOffset":43400,"byteLength":6360,"target":34962},{"buffer":0,"byteOffset":49760,"byteLength":4240,"target":34962},{"buffer":0,"byteOffset":54000,"byteLength":1056,"target":34963},{"buffer":0,"byteOffset":55056,"byteLength":2184,"target":34962},{"buffer":0,"byteOffset":57240,"byteLength":2184,"target":34962},{"buffer":0,"byteOffset":59424,"byteLength":1456,"target":34962},{"buffer":0,"byteOffset":60880,"byteLength":1008,"target":34963},{"buffer":0,"byteOffset":61888,"byteLength":2052,"target":34962},{"buffer":0,"byteOffset":63940,"byteLength":2052,"target":34962},{"buffer":0,"byteOffset":65992,"byteLength":1368,"target":34962},{"buffer":0,"byteOffset":67360,"byteLength":1728,"target":34963},{"buffer":0,"byteOffset":69088,"byteLength":3480,"target":34962},{"buffer":0,"byteOffset":72568,"byteLength":3480,"target":34962},{"buffer":0,"byteOffset":76048,"byteLength":2320,"target":34962},{"buffer":0,"byteOffset":78368,"byteLength":4080,"target":34963},{"buffer":0,"byteOffset":82448,"byteLength":8136,"target":34962},{"buffer":0,"byteOffset":90584,"byteLength":8136,"target":34962},{"buffer":0,"byteOffset":98720,"byteLength":5424,"target":34962},{"buffer":0,"byteOffset":104144,"byteLength":2304,"target":34963},{"buffer":0,"byteOffset":106448,"byteLength":4656,"target":34962},{"buffer":0,"byteOffset":111104,"byteLength":4656,"target":34962},{"buffer":0,"byteOffset":115760,"byteLength":3104,"target":34962},{"buffer":0,"byteOffset":118864,"byteLength":2304,"target":34963},{"buffer":0,"byteOffset":121168,"byteLength":4632,"target":34962},{"buffer":0,"byteOffset":125800,"byteLength":4632,"target":34962},{"buffer":0,"byteOffset":130432,"byteLength":3088,"target":34962},{"buffer":0,"byteOffset":133520,"byteLength":3840,"target":34963},{"buffer":0,"byteOffset":137360,"byteLength":7704,"target":34962},{"buffer":0,"byteOffset":145064,"byteLength":7704,"target":34962},{"buffer":0,"byteOffset":152768,"byteLength":5136,"target":34962}],"scene":0,"scenes":[{"nodes":[0,1,2,3,4,5,6,7,8,9,10],"name":"Project Name"}],"extensionsUsed":["KHR_texture_transform"],"buffers":[{"byteLength":157904,"uri":"ProjectName.bin"}]}